<svg xmlns:xlink="http://www.w3.org/1999/xlink" xmlns="http://www.w3.org/2000/svg" focusable="false" data-key="currency" aria-hidden="true" viewBox="0 0 52 52" class="slds-icon slds-icon-text-default slds-icon_x-small" width="52"  height="52" ><g fill="#706E6B"><g fill="#706E6B"><path d="M45.1 10.9H6.9c-2.4 0-4.4 2-4.4 4.4v21.3c0 2.4 2 4.4 4.4 4.4h38.2c2.4 0 4.4-2 4.4-4.4V15.4c0-2.5-2-4.5-4.4-4.5zM12 36.6c0-2.9-2.3-5.1-5.1-5.1v-11c2.9 0 5.1-2.3 5.1-5.1h28c0 2.9 2.3 5.1 5.1 5.1v11c-2.9 0-5.1 2.3-5.1 5.1H12z" fill="#706E6B"></path><circle cx="26" cy="25.6" r="7.3" fill="#706E6B"></circle></g></g></svg>