<?xml version="1.0" encoding="utf-8"?>
<!-- Generator: Adobe Illustrator 18.1.1, SVG Export Plug-In . SVG Version: 6.00 Build 0)  -->
<svg version="1.1" id="Layer_1" xmlns="http://www.w3.org/2000/svg" xmlns:xlink="http://www.w3.org/1999/xlink" x="0px" y="0px"
	 width="52px" height="52px" viewBox="0 0 52 52" enable-background="new 0 0 52 52" xml:space="preserve">
<path fill="#FFFFFF" d="M24.12,2.69A16.11,16.11,0,0,0,9.69,17a15.9,15.9,0,0,0,5.85,13.65,4.92,4.92,0,0,1,1.87,3.82v.08a4,4,0,0,0,4.05,4h9a4,4,0,0,0,4.05-4v-.08a4.92,4.92,0,0,1,1.87-3.82,15.88,15.88,0,0,0,5.93-12.24
	C42.36,9.09,34,1.68,24.12,2.69ZM33,43.16H19a1.56,1.56,0,0,0-1.56,1.56,4.69,4.69,0,0,0,4.68,4.68h7.8a4.69,4.69,0,0,0,4.68-4.68A1.56,1.56,0,0,0,33,43.16Z"/>
</svg>
