<svg xmlns:xlink="http://www.w3.org/1999/xlink" xmlns="http://www.w3.org/2000/svg" focusable="false" data-key="picklist_type" aria-hidden="true" viewBox="0 0 52 52" class="slds-icon slds-icon-text-default slds-icon_x-small" width="52"  height="52" ><g fill="#706E6B"><path d="M48.3 14.9H16.4c-.9 0-1.6-.7-1.6-1.6v-3.2c0-.9.7-1.6 1.6-1.6h31.9c.9 0 1.6.7 1.6 1.6v3.2c0 .9-.7 1.6-1.6 1.6zM48.3 29.2H16.4c-.9 0-1.6-.7-1.6-1.6v-3.2c0-.9.7-1.6 1.6-1.6h31.9c.9 0 1.6.7 1.6 1.6v3.2c0 .9-.7 1.6-1.6 1.6zM6.9 29.2H3.7c-.9 0-1.6-.7-1.6-1.6v-3.2c0-.9.7-1.6 1.6-1.6h3.2c.9 0 1.6.7 1.6 1.6v3.2c0 .9-.7 1.6-1.6 1.6zM6.9 14.9H3.7c-.9 0-1.6-.7-1.6-1.6v-3.2c0-.9.7-1.6 1.6-1.6h3.2c.9 0 1.6.7 1.6 1.6v3.2c0 .9-.7 1.6-1.6 1.6zM6.9 43.5H3.7c-.9 0-1.6-.7-1.6-1.6v-3.2c0-.9.7-1.6 1.6-1.6h3.2c.9 0 1.6.7 1.6 1.6v3.2c0 .9-.7 1.6-1.6 1.6zM48.3 43.5H16.4c-.9 0-1.6-.7-1.6-1.6v-3.2c0-.9.7-1.6 1.6-1.6h31.9c.9 0 1.6.7 1.6 1.6v3.2c0 .9-.7 1.6-1.6 1.6z" fill="#706E6B"></path></g></svg>