<?xml version="1.0" encoding="utf-8"?>
<!DOCTYPE svg PUBLIC "-//W3C//DTD SVG 20010904//EN" "http://www.w3.org/TR/2001/REC-SVG-20010904/DTD/svg10.dtd">
<svg version="1.0" xmlns="http://www.w3.org/2000/svg" width="128px" height="128px" viewBox="0 0 128 128" preserveAspectRatio="xMidYMid meet">
 <g fill="#d8be5f">
  <path d="M10.5 126.5 c-4.9 -1.7 -8.1 -5.3 -9.5 -10.5 -0.7 -2.6 -1 -20.8 -0.8 -54.2 0.3 -48.5 0.4 -50.4 2.3 -53.8 1.2 -1.9 3.6 -4.3 5.5 -5.5 3.4 -1.9 5 -2 56 -2 51 0 52.6 0.1 56 2 1.9 1.2 4.3 3.6 5.5 5.5 1.9 3.4 2 5 2 56 0 51 -0.1 52.6 -2 56 -1.2 1.9 -3.6 4.3 -5.5 5.5 -3.4 1.9 -5.2 2 -54.5 2.2 -42.2 0.2 -51.7 0 -55 -1.2z m101 -14.5 l4.9 -4.9 -11.4 -11.6 c-6.3 -6.3 -11.7 -11.5 -12.2 -11.5 -1.2 0 -7.8 6.1 -8.9 8.3 -1 1.7 0.3 3.3 10.2 13.3 6.3 6.3 11.6 11.4 11.9 11.4 0.3 0 2.8 -2.2 5.5 -5z m-36.2 -18.9 c8.1 -3.9 15.6 -11.8 18.8 -19.9 1.8 -4.4 2.3 -7.7 2.4 -14.7 0 -8 -0.4 -9.7 -3.2 -15.6 -4.1 -8.8 -9.2 -14.2 -16.7 -17.9 -9.4 -4.6 -16.6 -5.6 -25.8 -3.6 -29.1 6.5 -40.1 40.4 -20.5 63.2 3.8 4.3 13 9.8 19.3 11.4 7.3 1.8 18.5 0.5 25.7 -2.9z"/>
  <path d="M51.4 86.1 c-13.4 -3.4 -23.2 -19 -20.4 -32.4 2.3 -11.3 11.4 -20.4 22.6 -22.7 16.5 -3.5 33.4 10.8 33.4 28.1 0 9.4 -7.1 20.4 -16.2 25 -4.6 2.4 -14.2 3.4 -19.4 2z m12.6 -19.7 l0 -13.5 -5.2 0.3 -5.3 0.3 -0.3 13.3 -0.3 13.2 5.6 0 5.5 0 0 -13.6z m-1.5 -20.4 c2.3 -2.6 1.1 -6.9 -2.3 -8.1 -3 -1.1 -7.5 3 -6.6 5.8 1.6 4.4 6 5.5 8.9 2.3z"/>
 </g>
 <g fill="#ffffff">
 </g>
</svg>